<svg width="83" height="79" viewBox="0 0 83 79" fill="none" xmlns="http://www.w3.org/2000/svg">
<path d="M48.836 71.5285C48.3428 70.9965 47.49 70.9454 46.9302 71.4151C43.0801 74.6489 38.1283 76.4299 32.9875 76.4299C21.3626 76.4299 11.9052 67.4281 11.9052 56.3636V44.2167H18.6402C19.3857 44.2167 19.9902 43.6414 19.9902 42.9318C19.9902 42.2221 19.3857 41.6468 18.6402 41.6468H16.8568V37.9369H19.1377C19.8832 37.9369 20.4877 37.3615 20.4877 36.6519V24.63C20.4877 23.9204 19.8832 23.345 19.1377 23.345H16.8568V20.0628H19.1377C19.8832 20.0628 20.4877 19.4874 20.4877 18.7778V10.2123C20.4877 7.59793 18.2531 5.47095 15.5063 5.47095C12.7596 5.47095 10.5246 7.59777 10.5246 10.2123V18.7778C10.5246 19.4874 11.1292 20.0628 11.8747 20.0628H14.1567V23.345H11.8747C11.1292 23.345 10.5246 23.9204 10.5246 24.63V36.6519C10.5246 37.3615 11.1292 37.9369 11.8747 37.9369H14.1567V41.6468H10.5551C9.80958 41.6468 9.20508 42.2221 9.20508 42.9318V56.3636C9.20508 68.8453 19.874 78.9999 32.9875 78.9999C38.7868 78.9999 44.3729 76.9905 48.717 73.3423C49.2759 72.8726 49.3293 72.0607 48.836 71.5285ZM13.2247 17.4928V10.2123C13.2247 9.01499 14.2483 8.04092 15.5061 8.04092C16.7639 8.04092 17.7875 9.01515 17.7875 10.2123V17.493L13.2247 17.4928ZM13.2247 35.3669V25.9148H17.7876V35.3669H13.2247Z" fill="white"/>
<path d="M72.4449 43.635H68.5165V39.2973H72.4446C73.1903 39.2973 73.7946 38.722 73.7946 38.0124V28.2788C73.7946 24.8001 70.8212 21.9699 67.1665 21.9699C63.5115 21.9699 60.5381 24.8 60.5381 28.2788V38.0124C60.5381 38.722 61.1425 39.2974 61.8882 39.2974H65.8164V43.6352H61.8882C61.1425 43.6352 60.5381 44.2105 60.5381 44.9201V51.2067H56.7697V42.9319C56.7697 42.2223 56.1654 41.6469 55.4197 41.6469H53.1383V37.937H55.4197C56.1654 37.937 56.7697 37.3616 56.7697 36.652V22.8065C56.7697 22.0969 56.1654 21.5215 55.4197 21.5215H53.1383V18.2393H55.4197C56.1654 18.2393 56.7697 17.6639 56.7697 16.9543V8.38881C56.7697 5.77441 54.5352 3.64742 51.7883 3.64742C49.0413 3.64742 46.8067 5.77441 46.8067 8.38881V16.9545C46.8067 17.6641 47.411 18.2394 48.1567 18.2394H50.4382V21.5216H48.1567C47.411 21.5216 46.8067 22.097 46.8067 22.8066V36.6521C46.8067 37.3618 47.411 37.9371 48.1567 37.9371H50.4382V41.647H41.0442V37.937H43.3255C44.0712 37.937 44.6756 37.3616 44.6756 36.652V31.4937C44.6756 30.7841 44.0712 30.2087 43.3255 30.2087C42.5798 30.2087 41.9755 30.7841 41.9755 31.4937V35.3672H37.4126V23.1797H41.9755V27.2106C41.9755 27.9202 42.5798 28.4955 43.3255 28.4955C44.0712 28.4955 44.6756 27.9202 44.6756 27.2106V21.8947C44.6756 21.1851 44.0712 20.6097 43.3255 20.6097H41.0442V17.3275H43.3255C44.0712 17.3275 44.6756 16.7522 44.6756 16.0426V4.74139C44.6759 2.12698 42.4412 0 39.6944 0C36.9477 0 34.713 2.12698 34.713 4.74139V16.0424C34.713 16.752 35.3175 17.3274 36.063 17.3274H38.3444V20.6096H36.063C35.3175 20.6096 34.713 21.185 34.713 21.8946V36.652C34.713 37.3616 35.3175 37.937 36.063 37.937H38.3444V41.6469H28.9503V37.937H31.2317C31.9772 37.937 32.5817 37.3616 32.5817 36.652V22.8065C32.5817 22.0969 31.9772 21.5215 31.2317 21.5215H28.9503V18.2393H31.2317C31.9772 18.2393 32.5817 17.6639 32.5817 16.9543V5.65328C32.5817 3.03888 30.347 0.911895 27.6003 0.911895C24.8536 0.911895 22.6188 3.03888 22.6188 5.65328V16.9543C22.6188 17.6639 23.2233 18.2393 23.9689 18.2393H26.2502V21.5215H23.9689C23.2233 21.5215 22.6188 22.0969 22.6188 22.8065V36.652C22.6188 37.3616 23.2233 37.937 23.9689 37.937H26.2502V41.6469H23.1401C22.3946 41.6469 21.7901 42.2223 21.7901 42.9319C21.7901 43.6415 22.3946 44.2169 23.1401 44.2169H54.07V56.3637C54.07 60.9934 52.4609 65.3423 49.4166 68.9402C48.9488 69.4928 49.0404 70.3017 49.6214 70.7468C49.8708 70.938 50.1699 71.031 50.4673 71.031C50.8618 71.031 51.2528 70.867 51.5195 70.5519C54.9053 66.5504 56.7701 61.5114 56.7701 56.3637V53.7766H60.5385V59.6776C60.5385 60.3872 61.1428 60.9625 61.8885 60.9625C68.4538 60.9625 73.795 55.8788 73.795 49.6299V44.9201C73.795 44.2104 73.1906 43.635 72.4449 43.635ZM37.4127 14.7574V4.74139C37.4127 3.54404 38.4365 2.56997 39.6943 2.56997C40.9521 2.56997 41.9756 3.5442 41.9756 4.74139V14.7574H37.4127ZM25.3187 15.6693V5.65328H25.3189C25.3189 4.45594 26.3425 3.48186 27.6003 3.48186C28.8581 3.48186 29.8816 4.45609 29.8816 5.65328V15.6693H25.3187ZM25.3189 35.367V24.0913H29.8818V35.367H25.3189ZM49.5071 15.6693V8.38881C49.5071 7.19147 50.5306 6.21739 51.7886 6.21739C53.0464 6.21739 54.07 7.19162 54.07 8.38881V15.6695L49.5071 15.6693ZM49.5071 35.367V24.0913H54.07V35.367H49.5071ZM63.2381 36.7276V28.2789H63.2382C63.2382 26.2174 65.0005 24.54 67.1665 24.54C69.3324 24.54 71.0945 26.2174 71.0945 28.2789V36.7276H63.2381ZM71.0945 49.6301C71.0945 54.0254 67.6769 57.6752 63.2381 58.2988V46.2051H71.0945V49.6301Z" fill="white"/>
<path d="M23.073 48.8948C19.6345 48.8948 16.8373 51.5572 16.8373 54.83C16.8373 58.1024 19.6345 60.765 23.073 60.765C26.5112 60.765 29.3086 58.1026 29.3086 54.83C29.3084 51.5572 26.5112 48.8948 23.073 48.8948ZM23.0727 58.195C21.123 58.195 19.5371 56.6854 19.5371 54.83C19.5373 52.9742 21.1234 51.4647 23.0727 51.4647C25.0221 51.4647 26.6082 52.9744 26.6082 54.83C26.6082 56.6854 25.0222 58.195 23.0727 58.195Z" fill="white"/>
<path d="M42.9023 48.8948C39.4639 48.8948 36.6666 51.5572 36.6666 54.83C36.6666 58.1024 39.4638 60.765 42.9023 60.765C46.3408 60.765 49.138 58.1026 49.138 54.83C49.138 51.5572 46.3408 48.8948 42.9023 48.8948ZM42.9026 58.195C40.9529 58.195 39.367 56.6854 39.367 54.83C39.367 52.9742 40.9531 51.4647 42.9026 51.4647C44.852 51.4647 46.4382 52.9744 46.4382 54.83C46.4382 56.6854 44.852 58.195 42.9026 58.195Z" fill="white"/>
</svg>
